grf
version=1
nRows=22
nColumns=19
inDegrees=yes
endheader
time	ground_force_1_vx	ground_force_1_vy	ground_force_1_vz	ground_force_1_px	ground_force_1_py	ground_force_1_pz	ground_moment_1_mx	ground_moment_1_my	ground_moment_1_mz	ground_force_2_vx	ground_force_2_vy	ground_force_2_vz	ground_force_2_px	ground_force_2_py	ground_force_2_pz	ground_moment_2_mx	ground_moment_2_my	ground_moment_2_mz
0.905000	0.000000	0.000000	0.000000	0.000000	0.000000	0.000000	0.000000	0.000000	0.000000	19.640968	549.080322	10.479591	0.173706	0.000000	0.106545	-0.000000	0.251409	0.000000
0.906000	0.000000	0.000000	0.000000	0.000000	0.000000	0.000000	0.000000	0.000000	0.000000	19.542143	547.183228	9.987371	0.173290	0.000000	0.106378	-0.000000	0.309852	0.000000
0.907000	0.000000	0.000000	0.000000	0.000000	0.000000	0.000000	0.000000	0.000000	0.000000	18.178339	550.399963	10.282702	0.174124	0.000000	0.106968	-0.000000	0.268645	0.000000
0.908000	0.000000	0.000000	0.000000	0.000000	0.000000	0.000000	0.000000	0.000000	0.000000	18.217869	550.812378	9.770796	0.173472	0.000000	0.107228	-0.000000	0.327372	0.000000
0.909000	0.000000	0.000000	0.000000	0.000000	0.000000	0.000000	0.000000	0.000000	0.000000	17.842331	548.750366	9.554219	0.173115	0.000000	0.106770	-0.000000	0.412878	0.000000
0.910000	0.000000	0.000000	0.000000	0.000000	0.000000	0.000000	0.000000	0.000000	0.000000	16.794771	548.832825	9.810172	0.172173	0.000000	0.106608	-0.000000	0.243246	0.000000
0.911000	0.000000	0.000000	0.000000	0.000000	0.000000	0.000000	0.000000	0.000000	0.000000	17.506321	540.419861	8.727290	0.169329	0.000000	0.105536	-0.000000	0.501041	0.000000
0.912000	0.000000	0.000000	0.000000	0.000000	0.000000	0.000000	0.000000	0.000000	0.000000	15.490263	544.461426	8.727291	0.172700	0.000000	0.105746	-0.000000	0.576523	0.000000
0.913000	0.000000	0.000000	0.000000	0.000000	0.000000	0.000000	0.000000	0.000000	0.000000	16.102985	539.347656	9.416398	0.171547	0.000000	0.104362	-0.000000	0.513903	0.000000
0.914000	0.000000	0.000000	0.000000	0.000000	0.000000	0.000000	0.000000	0.000000	0.000000	16.775005	549.492676	7.723164	0.172445	0.000000	0.106505	-0.000000	0.479732	0.000000
0.915000	0.000000	0.000000	0.000000	0.000000	0.000000	0.000000	0.000000	0.000000	0.000000	15.450730	541.244690	7.860986	0.168862	0.000000	0.105532	-0.000000	0.653276	0.000000
0.916000	0.000000	0.000000	0.000000	0.000000	0.000000	0.000000	0.000000	0.000000	0.000000	15.055426	549.575134	7.585343	0.171566	0.000000	0.107534	-0.000000	0.546048	0.000000
0.917000	0.000000	0.000000	0.000000	0.000000	0.000000	0.000000	0.000000	0.000000	0.000000	14.343877	551.472168	8.687913	0.171738	0.000000	0.106851	-0.000000	0.523377	0.000000
0.918000	0.000000	0.000000	0.000000	0.000000	0.000000	0.000000	0.000000	0.000000	0.000000	13.414908	544.543823	8.668225	0.169723	0.000000	0.106610	-0.000000	0.469314	0.000000
0.919000	0.000000	0.000000	0.000000	0.000000	0.000000	0.000000	0.000000	0.000000	0.000000	13.711388	550.564941	8.294139	0.170664	0.000000	0.107725	-0.000000	0.509924	0.000000
0.920000	0.000000	0.000000	0.000000	0.000000	0.000000	0.000000	0.000000	0.000000	0.000000	12.999839	552.874329	8.451648	0.171203	0.000000	0.107515	-0.000000	0.483085	0.000000
0.921000	0.000000	0.000000	0.000000	0.000000	0.000000	0.000000	0.000000	0.000000	0.000000	12.505705	552.709351	8.648536	0.170705	0.000000	0.107827	-0.000000	0.381048	0.000000
0.922000	0.000000	0.000000	0.000000	0.000000	0.000000	0.000000	0.000000	0.000000	0.000000	12.070869	553.946533	8.628847	0.171165	0.000000	0.108335	-0.000000	0.387801	0.000000
0.923000	0.000000	0.000000	0.000000	0.000000	0.000000	0.000000	0.000000	0.000000	0.000000	11.754626	551.719604	8.038184	0.169572	0.000000	0.107502	-0.000000	0.483981	0.000000
0.924000	0.000000	0.000000	0.000000	0.000000	0.000000	0.000000	0.000000	0.000000	0.000000	12.051105	549.410156	7.624721	0.168989	0.000000	0.107258	-0.000000	0.600120	0.000000
0.925000	0.000000	0.000000	0.000000	0.000000	0.000000	0.000000	0.000000	0.000000	0.000000	11.734861	550.070068	7.664097	0.169059	0.000000	0.107876	-0.000000	0.554077	0.000000
0.926000	0.000000	0.000000	0.000000	0.000000	0.000000	0.000000	0.000000	0.000000	0.000000	11.043076	553.286743	7.447521	0.170090	0.000000	0.108268	-0.000000	0.610340	0.000000
